<svg xmlns="http://www.w3.org/2000/svg" viewBox="100 70 300 300">
  <defs>
    <linearGradient id="stoneTop" x1="0%" y1="100%" x2="100%" y2="0%">
      <stop offset="0%" stop-color="#ffaf45"/>
      <stop offset="100%" stop-color="#ff6b00"/>
    </linearGradient>
    <linearGradient id="stoneLeft" x1="0%" y1="0%" x2="0%" y2="100%">
      <stop offset="0%" stop-color="#e85d04"/>
      <stop offset="100%" stop-color="#9d3c00"/>
    </linearGradient>
    <linearGradient id="stoneRight" x1="0%" y1="0%" x2="0%" y2="100%">
      <stop offset="0%" stop-color="#3a4047"/>
      <stop offset="100%" stop-color="#1d2024"/>
    </linearGradient>
    <linearGradient id="knifeTop" x1="0%" y1="0%" x2="100%" y2="100%">
      <stop offset="0%" stop-color="#ffb703"/>
      <stop offset="100%" stop-color="#f46000"/>
    </linearGradient>
    <linearGradient id="knifeBlade" x1="0%" y1="0%" x2="100%" y2="100%">
      <stop offset="0%" stop-color="#5a636e"/>
      <stop offset="50%" stop-color="#2c3136"/>
      <stop offset="100%" stop-color="#16191d"/>
    </linearGradient>
  </defs>
  <path d="M 175 220 L 265 110 L 325 140 L 235 250 Z" fill="url(#stoneTop)" />
  <path d="M 175 220 L 175 250 L 235 280 L 235 250 Z" fill="url(#stoneLeft)" />
  <path d="M 235 250 L 235 280 L 325 170 L 325 140 Z" fill="url(#stoneRight)" />
  <path d="M 175 140 L 335 210 L 325 220 L 165 150 Z" fill="url(#knifeTop)" />
  <path d="M 165 150 L 325 220 L 325 245 L 165 190 Z" fill="url(#knifeBlade)" />
</svg>
